:FULLY-SPECIFIED
:FORCE-ALL-JOINTS-BE-3DOF
:DEGREES
272
root 8.31161 16.209 -25.2132 21.2818 69.0233 18.8677
lfemur -24.5532 7.50646 -22.9969
ltibia 40.2935 -0 0
lfoot -5.4701 -21.3486 -0.0191711
ltoes 65.6689 -0 0
rfemur -53.3897 -6.50576 13.0014
rtibia 86.8819 -0 0
rfoot 8.12463 -0.0244602 0.0115808
rtoes 1.29506 -0 0
lowerback 6.48199 -4.3511 -2.50819
upperback 1.3903 -5.97208 -1.99564
thorax -2.14242 -2.9485 -0.166445
lowerneck -5.31447 -11.1966 -4.61689
upperneck 0.694418 -14.7842 5.26457
head 1.90977 -7.30382 1.87252
lclavicle 5.08292e-14 1.58988e-14 3.71032e-30
lhumerus -44.8234 -35.3615 106.972
lradius 59.1437 -0 0
lwrist 20.2525 0 0
lhand 19.1568 14.8222 0.00178351
lfingers 7.12502 -0 0
lthumb 43.7477 38.7895 -0.00132014
rclavicle 5.08292e-14 1.58988e-14 3.71032e-30
rhumerus -53.6332 2.52895 -95.0082
rradius 42.6993 -0 0
rwrist 24.5289 0 0
rhand -18.6867 0.183728 -0.477685
rfingers 7.12502 -0 0
rthumb 7.59713 -29.4289 -0.410572
273
root 8.37451 16.1769 -25.1703 22.1056 69.938 20.0735
lfemur -24.3166 7.2258 -23.0454
ltibia 41.0689 -0 0
lfoot -5.81032 -21.9945 -0.0139953
ltoes 64.931 -0 0
rfemur -54.1842 -5.9494 13.833
rtibia 84.7333 -0 0
rfoot 7.62337 -0.368843 0.00659402
rtoes 1.12644 -0 0
lowerback 6.61746 -4.48083 -2.59729
upperback 1.55186 -6.14691 -2.05156
thorax -2.04576 -3.03514 -0.159098
lowerneck -5.14934 -11.2505 -4.73135
upperneck 0.670319 -14.8616 5.44672
head 1.90463 -7.34251 1.95349
lclavicle 4.02059e-14 1.45881e-14 2.1761e-30
lhumerus -44.6962 -35.4355 106.805
lradius 59.1111 -0 0
lwrist 20.2969 0 0
lhand 19.5299 14.9522 0.0019955
lfingers 7.12502 -0 0
lthumb 44.0963 38.7939 0.00018879
rclavicle 4.02059e-14 1.45881e-14 2.1761e-30
rhumerus -54.4341 3.32082 -96.1211
rradius 44.4183 -0 0
rwrist 23.971 0 0
rhand -22.1429 2.09986 -0.245172
rfingers 7.12502 -0 0
rthumb 4.26662 -27.7212 -0.2096
274
root 8.4395 16.1423 -25.1255 23.0313 70.8426 21.4534
lfemur -23.9806 6.96001 -23.0939
ltibia 41.8329 0 0
lfoot -6.34822 -22.6063 0
ltoes 63.6522 0 0
rfemur -54.677 -5.40979 14.4999
rtibia 82.6074 0 0
rfoot 7.37167 -0.590177 0
rtoes 1.37596 0 0
lowerback 6.738 -4.61229 -2.71573
upperback 1.7394 -6.3233 -2.13178
thorax -1.91208 -3.12316 -0.164029
lowerneck -4.98008 -11.3206 -4.84023
upperneck 0.669695 -14.9622 5.62359
head 1.90668 -7.39287 2.03008
lclavicle 3.07285e-14 1.19908e-14 0
lhumerus -44.5846 -35.6402 106.647
lradius 59.1166 0 0
lwrist 20.3141 0 0
lhand 19.7519 15.0959 0
lfingers 7.12502 0 0
lthumb 44.3039 38.8645 0
rclavicle 3.07285e-14 1.19908e-14 0
rhumerus -55.2369 3.9752 -97.0583
rradius 46.1277 0 0
rwrist 23.439 0 0
rhand -24.7442 3.49961 0
rfingers 7.12502 0 0
rthumb 1.75858 -746.473 0
275
root 8.50716 16.104 -25.0781 24.0895 71.7582 23.0513
lfemur -23.5445 6.70753 -23.1469
ltibia 42.6258 -0 0
lfoot -7.22674 -23.1741 0.0205537
ltoes 61.4312 -0 0
rfemur -54.8219 -4.83295 14.9502
rtibia 80.349 -0 0
rfoot 7.44872 -0.464172 -0.00200967
rtoes 1.85975 -0 0
lowerback 6.84632 -4.75455 -2.8686
upperback 1.96383 -6.51316 -2.23274
thorax -1.73074 -3.21847 -0.174166
lowerneck -4.8116 -11.4065 -4.93992
upperneck 0.69048 -15.0855 5.7938
head 1.91568 -7.45452 2.10124
lclavicle 2.00439e-14 6.95939e-15 -3.26472e-30
lhumerus -44.5119 -36.0111 106.529
lradius 59.1756 -0 0
lwrist 20.3326 0 0
lhand 19.7868 15.2806 -0.00361937
lfingers 7.12502 -0 0
lthumb 44.3369 39.0402 -0.00230911
rclavicle 2.00439e-14 6.95939e-15 -3.26472e-30
rhumerus -56.0175 4.43888 -97.7655
rradius 47.8686 -0 0
rwrist 22.9075 0 0
rhand -26.451 4.44613 0.169295
rfingers 7.12502 -0 0
rthumb 0.112042 -25.613 0.142966
